<?xml version="1.0" standalone="no"?><!DOCTYPE svg PUBLIC "-//W3C//DTD SVG 1.1//EN" "http://www.w3.org/Graphics/SVG/1.1/DTD/svg11.dtd"><svg t="1736257520480" class="icon" viewBox="0 0 1024 1024" version="1.1" xmlns="http://www.w3.org/2000/svg" p-id="8708" xmlns:xlink="http://www.w3.org/1999/xlink" width="200" height="200"><path d="M439.296 153.6h145.408a25.6 25.6 0 0 1 25.344 29.3376l-60.672 409.6a25.6 25.6 0 0 1-25.344 21.8624h-24.064a25.6 25.6 0 0 1-25.344-21.8624l-60.672-409.6A25.6 25.6 0 0 1 439.296 153.6zM512 870.4a102.4 102.4 0 1 1 0-204.8 102.4 102.4 0 0 1 0 204.8zM102.4 51.2h819.2a51.2 51.2 0 0 1 51.2 51.2v819.2a51.2 51.2 0 0 1-51.2 51.2H102.4a51.2 51.2 0 0 1-51.2-51.2V102.4a51.2 51.2 0 0 1 51.2-51.2z m0 51.2v819.2h819.2V102.4H102.4z" fill="#6574DC" p-id="8709"></path></svg>