<?xml version="1.0" standalone="no"?><!DOCTYPE svg PUBLIC "-//W3C//DTD SVG 1.1//EN" "http://www.w3.org/Graphics/SVG/1.1/DTD/svg11.dtd"><svg t="1736168100009" class="icon" viewBox="0 0 1024 1024" version="1.1" xmlns="http://www.w3.org/2000/svg" p-id="4411" xmlns:xlink="http://www.w3.org/1999/xlink" width="200" height="200"><path d="M959.296 90.88c12.032 0 21.824 9.6 21.824 21.312v238.336l0.192 540.352v64H256.32v-64l660.992-0.064V389.504H128v256H64V112.256c0-11.776 9.792-21.312 21.824-21.312H959.36z m-273.728 464.128l4.48 3.648 118.464 115.52-44.672 45.824-95.872-93.504-149.248 148.992a32 32 0 0 1-39.68 4.416l-5.12-3.968-117.632-112.64-260.032 262.784-45.504-44.992 282.24-285.184a32 32 0 0 1 40.448-4.16l4.48 3.584 117.696 112.768 149.44-149.184a32 32 0 0 1 40.512-3.84zM832 218.88H341.312v42.688H832V218.88z m-576-0.064H192v42.688h64v-42.688z" fill="#242831" p-id="4412"></path></svg>