<?xml version="1.0" standalone="no"?><!DOCTYPE svg PUBLIC "-//W3C//DTD SVG 1.1//EN" "http://www.w3.org/Graphics/SVG/1.1/DTD/svg11.dtd"><svg t="1736169535017" class="icon" viewBox="0 0 1024 1024" version="1.1" xmlns="http://www.w3.org/2000/svg" p-id="39043" xmlns:xlink="http://www.w3.org/1999/xlink" width="200" height="200"><path d="M85.333333 238.933333c-51.2 0-85.333333-42.666667-85.333333-85.333333 0-51.2 42.666667-85.333333 85.333333-85.333333 51.2 0 85.333333 42.666667 85.333334 85.333333 8.533333 42.666667-34.133333 85.333333-85.333334 85.333333zM955.733333 213.333333H290.133333c-34.133333 0-59.733333-25.6-59.733333-59.733333s25.6-59.733333 59.733333-59.733333h665.6c34.133333 0 59.733333 25.6 59.733334 59.733333s-25.6 59.733333-59.733334 59.733333zM85.333333 597.333333c-42.666667 0-85.333333-34.133333-85.333333-85.333333s42.666667-85.333333 85.333333-85.333333c51.2 0 85.333333 42.666667 85.333334 85.333333 8.533333 51.2-34.133333 85.333333-85.333334 85.333333zM955.733333 571.733333H290.133333c-25.6 0-59.733333-25.6-59.733333-59.733333s25.6-59.733333 59.733333-59.733333h665.6c34.133333 0 59.733333 25.6 59.733334 59.733333s-25.6 59.733333-59.733334 59.733333zM85.333333 964.266667c-51.2 0-85.333333-42.666667-85.333333-85.333334 0-51.2 42.666667-85.333333 85.333333-85.333333 51.2 0 85.333333 42.666667 85.333334 85.333333 8.533333 42.666667-34.133333 85.333333-85.333334 85.333334zM955.733333 930.133333H290.133333c-34.133333 0-59.733333-25.6-59.733333-59.733333s25.6-59.733333 59.733333-59.733333h665.6c34.133333 0 59.733333 25.6 59.733334 59.733333s-25.6 59.733333-59.733334 59.733333z" fill="#4D4D4D" p-id="39044"></path></svg>