<?xml version="1.0" standalone="no"?><!DOCTYPE svg PUBLIC "-//W3C//DTD SVG 1.1//EN" "http://www.w3.org/Graphics/SVG/1.1/DTD/svg11.dtd"><svg t="1736168523929" class="icon" viewBox="0 0 1037 1024" version="1.1" xmlns="http://www.w3.org/2000/svg" p-id="13435" xmlns:xlink="http://www.w3.org/1999/xlink" width="202.5390625" height="200"><path d="M621.129573 972.428925c-4.575663 0-9.162487-1.127176-13.325224-3.392687l-205.302207-111.601548a27.898155 27.898155 0 0 1-14.575163-24.5077V419.811542L114.402746 160.360264c-0.279004-0.267844-0.546848-0.535687-0.814691-0.803531-15.423334-15.8809-19.820435-39.317225-11.193635-59.717989s28.503035-33.569746 50.633622-33.569745h730.912016c22.141747 0 42.017983 13.180143 50.644782 33.569745s4.229699 43.825928-11.193635 59.717989c-0.267844 0.279004-0.535687 0.546848-0.814691 0.803531l-273.535394 259.451278v524.716996c0 9.843256-5.178312 18.949943-13.637709 23.983173a27.851282 27.851282 0 0 1-14.262678 3.917214zM443.727753 816.33184l149.501433 81.268247V407.825535c0-7.655866 3.147164-14.976928 8.704921-20.24452l279.907842-265.500082H155.126151l279.919002 265.500082c5.557757 5.267593 8.704921 12.588655 8.704921 20.24452v408.506305z m440.323906-694.250907z m32.598812 359.234221c0-15.412174-12.488213-27.900387-27.900387-27.900386H754.482263c-15.412174 0-27.900387 12.488213-27.900387 27.900386s12.488213 27.900387 27.900387 27.900387h134.267821c15.412174 0 27.900387-12.488213 27.900387-27.900387z m0 141.443802c0-15.412174-12.488213-27.900387-27.900387-27.900387H754.482263c-15.412174 0-27.900387 12.488213-27.900387 27.900387s12.488213 27.900387 27.900387 27.900387h134.267821c15.412174 0 27.900387-12.488213 27.900387-27.900387z m0 141.443801c0-15.412174-12.488213-27.900387-27.900387-27.900387H754.482263c-15.412174 0-27.900387 12.488213-27.900387 27.900387s12.488213 27.900387 27.900387 27.900387h134.267821c15.412174 0 27.900387-12.488213 27.900387-27.900387z" p-id="13436"></path></svg>