<?xml version="1.0" standalone="no"?><!DOCTYPE svg PUBLIC "-//W3C//DTD SVG 1.1//EN" "http://www.w3.org/Graphics/SVG/1.1/DTD/svg11.dtd"><svg t="1736168329274" class="icon" viewBox="0 0 1088 1024" version="1.1" xmlns="http://www.w3.org/2000/svg" p-id="6186" xmlns:xlink="http://www.w3.org/1999/xlink" width="212.5" height="200"><path d="M134.976 96h163.648a38.4 38.4 0 0 1 38.4 38.4v165.376a38.4 38.4 0 0 1-38.4 38.4H135.04a38.4 38.4 0 0 1-38.4-38.4V134.4a38.4 38.4 0 0 1 38.4-38.4zM134.976 394.24h163.648a38.4 38.4 0 0 1 38.4 38.4v165.44a38.4 38.4 0 0 1-38.4 38.4H135.04a38.4 38.4 0 0 1-38.4-38.4V432.64a38.4 38.4 0 0 1 38.4-38.4z" fill="#303133" fill-opacity=".7" p-id="6187"></path><path d="M726.528 96h163.648a38.4 38.4 0 0 1 38.4 38.4v165.376a38.4 38.4 0 0 1-38.4 38.4h-163.648a38.4 38.4 0 0 1-38.4-38.4V134.4a38.4 38.4 0 0 1 38.4-38.4zM429.44 394.24h163.712a38.4 38.4 0 0 1 38.4 38.4v165.44a38.4 38.4 0 0 1-38.4 38.4H429.44a38.4 38.4 0 0 1-38.4-38.4V432.64a38.4 38.4 0 0 1 38.4-38.4zM134.976 685.76h163.648a38.4 38.4 0 0 1 38.4 38.4V889.6a38.4 38.4 0 0 1-38.4 38.4H135.04a38.4 38.4 0 0 1-38.4-38.4v-165.44a38.4 38.4 0 0 1 38.4-38.4z" fill="#303133" p-id="6188"></path><path d="M726.528 394.24h163.648a38.4 38.4 0 0 1 38.4 38.4v165.44a38.4 38.4 0 0 1-38.4 38.4h-163.648a38.4 38.4 0 0 1-38.4-38.4V432.64a38.4 38.4 0 0 1 38.4-38.4zM429.44 685.76h163.712a38.4 38.4 0 0 1 38.4 38.4V889.6a38.4 38.4 0 0 1-38.4 38.4H429.44a38.4 38.4 0 0 1-38.4-38.4v-165.44a38.4 38.4 0 0 1 38.4-38.4zM688.128 685.76h202.048a38.4 38.4 0 0 1 38.4 38.4V889.6a38.4 38.4 0 0 1-38.4 38.4h-163.648a38.4 38.4 0 0 1-38.4-38.4v-203.84z" fill="#303133" fill-opacity=".5" p-id="6189"></path><path d="M429.44 96h163.712a38.4 38.4 0 0 1 38.4 38.4v165.376a38.4 38.4 0 0 1-38.4 38.4H429.44a38.4 38.4 0 0 1-38.4-38.4V134.4a38.4 38.4 0 0 1 38.4-38.4z" fill="#303133" fill-opacity=".8" p-id="6190"></path></svg>