<?xml version="1.0" standalone="no"?><!DOCTYPE svg PUBLIC "-//W3C//DTD SVG 1.1//EN" "http://www.w3.org/Graphics/SVG/1.1/DTD/svg11.dtd"><svg t="1736168922286" class="icon" viewBox="0 0 1024 1024" version="1.1" xmlns="http://www.w3.org/2000/svg" p-id="21318" xmlns:xlink="http://www.w3.org/1999/xlink" width="200" height="200"><path d="M105.81333333 871.53777778V89.88444445H42.09777778v844.2311111h938.66666667v-62.57777777z" p-id="21319"></path><path d="M199.28860445 724.62677333c20.91804445 0 37.87662222-16.95744 37.87662222-37.87776 0-4.92202667-0.97052445-9.61080889-2.67719112-13.92298666l116.72576-182.85454222 71.13728 106.17059555 23.85009778-18.52984889 0.27875556 0.34816 57.95271111-46.85482666 75.73845333 160.59278222 25.56586667-26.93688889-0.36295111-0.78051556 113.63555556-107.12746667 86.63153777 120.44288a37.66499555 37.66499555 0 0 0-3.23584 15.28035556c0 20.91918222 16.95857778 37.87662222 37.87434667 37.87662222 20.91918222 0 37.87662222-16.95744 37.87662222-37.87662222 0-20.91804445-16.95744-37.87662222-37.87662222-37.87662222-2.50197333 0-4.94023111 0.25941333-7.30453334 0.72021333l-88.30179555-122.76280889 132.48967111-124.90638222c3.95946667 1.40288 8.20565333 2.20728889 12.64753778 2.20728889 20.91918222 0 37.87662222-16.95744 37.87662222-37.87662222 0-20.91804445-16.95744-37.87548445-37.87662222-37.87548445-20.91576889 0-37.87434667 16.95630222-37.87434667 37.87548445 0 3.49752889 0.512 6.86990222 1.39946667 10.08412444L724.07722667 504.02417778l-68.44871112-95.16487111-0.60416-0.50631112-20.74851555-27.18947555-117.13308445 94.70293333-65.82499555-140.34488888-1.09226667-0.65194667-18.62656-35.67047111-81.03594666 126.81443555-80.20764445-120.18574222a37.67978667 37.67978667 0 0 0 4.68650667-18.24199111c0-20.91804445-16.95857778-37.87548445-37.87662222-37.87548444-20.91576889 0-37.87434667 16.95744-37.87434667 37.87548444 0 20.91918222 16.95744 37.87662222 37.87434667 37.87662222 1.38808889 0 2.75683555-0.08533333 4.10510222-0.23096889l88.74325333 132.96981333-122.33386667 191.63818667a37.76056889 37.76056889 0 0 0-8.3911111-0.96711111c-20.91576889 0-37.87434667 16.95744-37.87434667 37.87548444 0.00113778 20.92145778 16.95857778 37.87889778 37.87434667 37.87889778z m429.1072-293.74919111l70.01770666 97.34257778-108.66574222 102.44323555-57.31555556-122.19733333 95.96359112-77.58848zM428.41884445 369.03253333l60.72433777 129.47114667-58.58417777 47.36910222-58.79580445-88.09472 56.65564445-88.74552889z" p-id="21320"></path></svg>