<?xml version="1.0" standalone="no"?><!DOCTYPE svg PUBLIC "-//W3C//DTD SVG 1.1//EN" "http://www.w3.org/Graphics/SVG/1.1/DTD/svg11.dtd"><svg t="1736169370708" class="icon" viewBox="0 0 1026 1024" version="1.1" xmlns="http://www.w3.org/2000/svg" p-id="30768" xmlns:xlink="http://www.w3.org/1999/xlink" width="200.390625" height="200"><path d="M469.33216 0.00256a42.66656 42.66656 0 0 0-42.66656 42.66656V85.33568a469.33216 469.33216 0 1 0 511.99872 511.99872h45.226554a42.66656 42.66656 0 0 0 42.66656-42.66656A555.518611 555.518611 0 0 0 469.33216 0.00256zM511.99872 85.33568a471.892154 471.892154 0 0 1 426.6656 426.6656H511.99872z m-42.66656 853.3312A383.145709 383.145709 0 0 1 426.6656 174.935456V554.66784a42.66656 42.66656 0 0 0 42.66656 42.66656H853.3312a383.145709 383.145709 0 0 1-383.99904 341.33248z" p-id="30769"></path></svg>