<?xml version="1.0" standalone="no"?><!DOCTYPE svg PUBLIC "-//W3C//DTD SVG 1.1//EN" "http://www.w3.org/Graphics/SVG/1.1/DTD/svg11.dtd"><svg t="1736169105129" class="icon" viewBox="0 0 1280 1024" version="1.1" xmlns="http://www.w3.org/2000/svg" p-id="23344" xmlns:xlink="http://www.w3.org/1999/xlink" width="250" height="200"><path d="M767.8 1024c-0.2 0-1.6 0 0 0-15.876-0.188-29.62-12.062-31.72-27.76L640 274.6l-97.8 721.6c-0.4 14-13.8 27.6-29.6 27.8-0.156 0 0.126 0 0 0-15.688 0-29.4-11.376-31.9-26.94L385.8 405.6l-66.12 463c-2.28 13.6-15.28 27-30.88 27.4-15.75 0.312-29.18-10.5-32.24-25.76L184.26 508.4l-25.92 77.8C154 599.2 141.78 608 128 608l-96.04-1.8c-17.648 0-31.96-12.6-31.96-32 0-16 14.344-32 32-32l72.94 1.8 56.72-170.12C166.22 360.2 178.9 350.6 194 352c14.468 0.876 26.54 11.438 29.38 25.68l59.38 296.8 69.56-487c2.28-15.66 13.88-27.36 31.48-27.48 15.844 2.25 29.38 11.312 31.88 26.94l93.72 584.6 98.8-743.78C610.4 11.876 622.2 0 640 0s29.6 11.876 31.72 27.76l98.96 743.8 93.72-584.6c2.6-15.64 19-25.84 31.8-26.96 15.812 0.126 29.16 11.812 31.4 27.5l69.56 487 59.38-296.8c2.844-14.25 14.906-24.82 29.38-25.68 14.938-1.376 27.76 8.062 32.34 21.82L1175 544l73-1.8c17.656 0 32 14.338 32 32.02 0 17.624-14.312 31.98-31.96 31.98L1152 608c-13.782 0-26-8.812-30.34-21.88l-25.9-77.68-72.38 361.8C1020.4 885.6 1006.6 896 991.2 896c-15.594-0.438-28.6-12.062-30.82-27.5l-66.12-463-94.84 591.6C796.8 1012.6 783.4 1024 767.8 1024z" p-id="23345"></path></svg>